<?xml version="1.0" encoding="UTF-8"?>
<svg xmlns="http://www.w3.org/2000/svg" xmlns:xlink="http://www.w3.org/1999/xlink" width="38px" height="38px" viewBox="0 0 38 38" version="1.1">
<defs>
<clipPath id="clip1">
  <path d="M 6.839844 6.839844 L 31.160156 6.839844 L 31.160156 31.160156 L 6.839844 31.160156 Z M 6.839844 6.839844 "/>
</clipPath>
</defs>
<g id="surface1">
<path style=" stroke:none;fill-rule:nonzero;fill:rgb(100%,100%,100%);fill-opacity:1;" d="M 9.640625 5.84375 L 28.359375 5.84375 C 30.457031 5.84375 32.15625 7.542969 32.15625 9.640625 L 32.15625 28.359375 C 32.15625 30.457031 30.457031 32.15625 28.359375 32.15625 L 9.640625 32.15625 C 7.542969 32.15625 5.84375 30.457031 5.84375 28.359375 L 5.84375 9.640625 C 5.84375 7.542969 7.542969 5.84375 9.640625 5.84375 Z M 9.640625 5.84375 "/>
<g clip-path="url(#clip1)" clip-rule="nonzero">
<path style=" stroke:none;fill-rule:nonzero;fill:rgb(100%,100%,100%);fill-opacity:1;" d="M 27.511719 6.839844 L 10.488281 6.839844 C 8.472656 6.839844 6.839844 8.472656 6.839844 10.488281 L 6.839844 27.511719 C 6.839844 29.527344 8.472656 31.160156 10.488281 31.160156 L 27.511719 31.160156 C 29.527344 31.160156 31.160156 29.527344 31.160156 27.511719 L 31.160156 10.488281 C 31.160156 8.472656 29.527344 6.839844 27.511719 6.839844 Z M 27.511719 6.839844 "/>
</g>
<path style=" stroke:none;fill-rule:nonzero;fill:rgb(0%,17.254902%,54.11765%);fill-opacity:1;" d="M 24.746094 15.617188 L 15.421875 25.792969 L 12.003906 25.792969 C 11.765625 25.792969 11.574219 25.554688 11.625 25.316406 L 13.902344 10.878906 C 13.949219 10.546875 14.234375 10.308594 14.566406 10.308594 L 20.363281 10.308594 C 24.351562 10.449219 25.445312 12.492188 24.734375 15.628906 Z M 24.746094 15.617188 "/>
<path style=" stroke:none;fill-rule:nonzero;fill:rgb(0%,60.784316%,88.235295%);fill-opacity:1;" d="M 24.898438 14.675781 C 26.324219 15.4375 26.65625 16.863281 26.183594 18.761719 C 25.566406 21.566406 23.710938 22.753906 21.003906 22.800781 L 20.246094 22.847656 C 19.960938 22.847656 19.769531 23.039062 19.722656 23.324219 L 19.105469 27.074219 C 19.058594 27.40625 18.773438 27.644531 18.441406 27.644531 L 15.589844 27.644531 C 15.351562 27.644531 15.160156 27.40625 15.210938 27.171875 L 16.253906 20.378906 C 16.300781 20.140625 24.898438 14.675781 24.898438 14.675781 Z M 24.898438 14.675781 "/>
<path style=" stroke:none;fill-rule:nonzero;fill:rgb(0%,12.156863%,41.960785%);fill-opacity:1;" d="M 16.199219 20.710938 L 17.148438 14.675781 C 17.179688 14.535156 17.257812 14.40625 17.367188 14.3125 C 17.480469 14.21875 17.617188 14.160156 17.765625 14.15625 L 22.324219 14.15625 C 23.417969 14.15625 24.226562 14.34375 24.890625 14.675781 C 24.652344 16.765625 23.65625 20.140625 18.808594 20.234375 L 16.71875 20.234375 C 16.484375 20.234375 16.246094 20.425781 16.199219 20.710938 Z M 16.199219 20.710938 "/>
</g>
</svg>
